<svg width="121" height="62" viewBox="0 0 121 62" fill="none" xmlns="http://www.w3.org/2000/svg">
<path d="M4.572 4.4H0.432V0.799998H12.672V4.4H8.532V26H4.572V4.4ZM13.8693 0.799998H17.8293V11.06H22.0773V0.799998H26.0373V26H22.0773V14.66H17.8293V26H13.8693V0.799998ZM28.2665 0.799998H39.0665V4.4H32.2265V11.06H37.6625V14.66H32.2265V22.4H39.0665V26H28.2665V0.799998ZM48.7662 4.4H44.6262V0.799998H56.8662V4.4H52.7262V26H48.7662V4.4ZM59.4712 0.799998H64.8352L68.9392 26H64.9792L64.2592 20.996V21.068H59.7592L59.0392 26H55.3672L59.4712 0.799998ZM63.7912 17.648L62.0272 5.192H61.9552L60.2272 17.648H63.7912ZM71.584 4.4H67.444V0.799998H79.684V4.4H75.544V26H71.584V4.4ZM84.3289 4.4H80.1889V0.799998H92.4289V4.4H88.2889V26H84.3289V4.4ZM99.2095 26.36C97.2655 26.36 95.7775 25.808 94.7455 24.704C93.7135 23.6 93.1975 22.04 93.1975 20.024V6.776C93.1975 4.76 93.7135 3.2 94.7455 2.096C95.7775 0.991999 97.2655 0.439999 99.2095 0.439999C101.154 0.439999 102.642 0.991999 103.674 2.096C104.706 3.2 105.222 4.76 105.222 6.776V20.024C105.222 22.04 104.706 23.6 103.674 24.704C102.642 25.808 101.154 26.36 99.2095 26.36ZM99.2095 22.76C100.578 22.76 101.262 21.932 101.262 20.276V6.524C101.262 4.868 100.578 4.04 99.2095 4.04C97.8415 4.04 97.1575 4.868 97.1575 6.524V20.276C97.1575 21.932 97.8415 22.76 99.2095 22.76ZM112.904 26.36C110.96 26.36 109.472 25.808 108.44 24.704C107.408 23.6 106.892 22.04 106.892 20.024V6.776C106.892 4.76 107.408 3.2 108.44 2.096C109.472 0.991999 110.96 0.439999 112.904 0.439999C114.848 0.439999 116.336 0.991999 117.368 2.096C118.4 3.2 118.916 4.76 118.916 6.776V20.024C118.916 22.04 118.4 23.6 117.368 24.704C116.336 25.808 114.848 26.36 112.904 26.36ZM112.904 22.76C114.272 22.76 114.956 21.932 114.956 20.276V6.524C114.956 4.868 114.272 4.04 112.904 4.04C111.536 4.04 110.852 4.868 110.852 6.524V20.276C110.852 21.932 111.536 22.76 112.904 22.76ZM1.476 31.8H11.952V35.4H5.436V42.42H10.548V46.02H5.436V57H1.476V31.8ZM15.0308 31.8H20.3948L24.4988 57H20.5388L19.8188 51.996V52.068H15.3188L14.5988 57H10.9268L15.0308 31.8ZM19.3508 48.648L17.5868 36.192H17.5148L15.7868 48.648H19.3508ZM31.2097 57.36C29.3137 57.36 27.8617 56.82 26.8537 55.74C25.8697 54.66 25.3777 53.136 25.3777 51.168V37.632C25.3777 35.664 25.8697 34.14 26.8537 33.06C27.8617 31.98 29.3137 31.44 31.2097 31.44C33.1057 31.44 34.5457 31.98 35.5297 33.06C36.5377 34.14 37.0417 35.664 37.0417 37.632V40.296H33.2977V37.38C33.2977 35.82 32.6377 35.04 31.3178 35.04C29.9977 35.04 29.3377 35.82 29.3377 37.38V51.456C29.3377 52.992 29.9977 53.76 31.3178 53.76C32.6377 53.76 33.2977 52.992 33.2977 51.456V47.604H37.0417V51.168C37.0417 53.136 36.5377 54.66 35.5297 55.74C34.5457 56.82 33.1057 57.36 31.2097 57.36ZM41.787 35.4H37.647V31.8H49.887V35.4H45.747V57H41.787V35.4ZM56.6677 57.36C54.7237 57.36 53.2357 56.808 52.2037 55.704C51.1717 54.6 50.6557 53.04 50.6557 51.024V37.776C50.6557 35.76 51.1717 34.2 52.2037 33.096C53.2357 31.992 54.7237 31.44 56.6677 31.44C58.6117 31.44 60.0997 31.992 61.1317 33.096C62.1637 34.2 62.6797 35.76 62.6797 37.776V51.024C62.6797 53.04 62.1637 54.6 61.1317 55.704C60.0997 56.808 58.6117 57.36 56.6677 57.36ZM56.6677 53.76C58.0357 53.76 58.7197 52.932 58.7197 51.276V37.524C58.7197 35.868 58.0357 35.04 56.6677 35.04C55.2997 35.04 54.6157 35.868 54.6157 37.524V51.276C54.6157 52.932 55.2997 53.76 56.6677 53.76ZM64.6377 31.8H70.5057C72.5457 31.8 74.0337 32.28 74.9697 33.24C75.9057 34.176 76.3737 35.628 76.3737 37.596V39.144C76.3737 41.76 75.5097 43.416 73.7817 44.112V44.184C74.7417 44.472 75.4137 45.06 75.7977 45.948C76.2057 46.836 76.4097 48.024 76.4097 49.512V53.94C76.4097 54.66 76.4337 55.248 76.4817 55.704C76.5297 56.136 76.6497 56.568 76.8417 57H72.8097C72.6657 56.592 72.5697 56.208 72.5217 55.848C72.4737 55.488 72.4497 54.84 72.4497 53.904V49.296C72.4497 48.144 72.2577 47.34 71.8737 46.884C71.5137 46.428 70.8777 46.2 69.9657 46.2H68.5977V57H64.6377V31.8ZM70.0377 42.6C70.8297 42.6 71.4177 42.396 71.8017 41.988C72.2097 41.58 72.4137 40.896 72.4137 39.936V37.992C72.4137 37.08 72.2457 36.42 71.9097 36.012C71.5977 35.604 71.0937 35.4 70.3977 35.4H68.5977V42.6H70.0377ZM81.5108 46.272L76.7228 31.8H80.9348L83.6348 41.052H83.7068L86.4068 31.8H90.2588L85.4708 46.272V57H81.5108V46.272Z" fill="white"/>
<path d="M103.982 42.2257C103.677 41.6496 103.132 41.3209 102.595 41.1921C102.068 41.0658 101.48 41.1158 101.05 41.3857C100.61 41.6619 100.351 42.1215 100.237 42.5687C100.124 43.013 100.137 43.5117 100.319 43.9104L100.327 43.9274L100.336 43.9436C100.819 44.7923 101.598 45.3645 102.271 45.6981C102.609 45.8658 102.934 45.9803 103.202 46.0396C103.335 46.069 103.466 46.0876 103.584 46.0881C103.644 46.0883 103.71 46.084 103.777 46.0694C103.84 46.0556 103.933 46.0264 104.019 45.9562C104.139 45.8584 104.201 45.7187 104.232 45.6377C104.272 45.5375 104.304 45.4206 104.33 45.2971C104.383 45.0485 104.418 44.7363 104.424 44.3984C104.437 43.7323 104.339 42.8979 103.982 42.2257Z" fill="#666666"/>
<path fill-rule="evenodd" clip-rule="evenodd" d="M104.983 35.0023C103.188 34.9504 100.105 35.778 97.5761 39.1529C96.3609 40.7748 95.7242 42.0557 95.389 43.1297C95.0541 44.2025 95.0278 45.0469 95.0056 45.7606L95.0022 45.8676C94.9522 47.4281 95.742 50.0307 98.1981 51.5637C99.9773 52.6742 103.2 53.5018 106.222 53.6263C105.648 54.4364 104.715 55.5617 103.681 56.2205L102.459 57H103.91C104.596 57 105.676 56.6341 106.71 56.0379C107.697 55.4684 108.716 54.6474 109.374 53.6176C110.295 53.5039 111.638 53.1665 112.998 52.4929C114.47 51.7638 115.988 50.6279 117 48.9269L116.37 48.381C115.425 49.1372 113.903 50.0556 111.906 50.5919C112.88 49.4789 114.019 47.7672 114.378 45.8135C114.994 42.4623 114.346 39.1977 111.631 37.1954C108.996 35.2513 106.682 35.0514 104.983 35.0023ZM101.506 38.3323C102.533 37.6403 104.31 36.9611 106.14 37.0011C107.943 37.0405 109.79 37.7747 111.058 39.9066C113.019 43.3403 112.491 48.2292 108.526 50.6317C104.201 52.3783 100.023 51.1929 98.1001 47.8299C96.2045 44.5141 98.052 40.66 101.506 38.3323Z" fill="#666666"/>
</svg>
