<svg width="54" height="54" viewBox="0 0 54 54" fill="none" xmlns="http://www.w3.org/2000/svg">
<path d="M48.0734 39.6837C46.3839 37.9928 44.4097 36.6128 42.2414 35.6068C45.2991 33.1296 47.2499 29.3497 47.2499 25.1108C47.2499 17.6321 41.0129 11.4965 33.534 11.6112C26.1698 11.726 20.2365 17.7266 20.2365 25.1108C20.2365 29.3497 22.194 33.1296 25.245 35.6068C23.0763 36.612 21.102 37.9922 19.413 39.6837C15.7276 43.3758 13.6351 48.2492 13.5001 53.4465C13.4983 53.5186 13.5109 53.5902 13.5372 53.6573C13.5636 53.7244 13.6031 53.7855 13.6534 53.8371C13.7037 53.8887 13.7639 53.9297 13.8303 53.9576C13.8967 53.9856 13.968 54 14.0401 54H17.8201C18.1103 54 18.3533 53.7705 18.3601 53.4803C18.4883 49.5654 20.0745 45.9002 22.8623 43.1193C24.2888 41.6852 25.9856 40.5483 27.8545 39.7744C29.7234 39.0004 31.7272 38.6048 33.75 38.6105C37.8607 38.6105 41.7284 40.2102 44.6376 43.1193C47.4186 45.9002 49.0049 49.5654 49.1399 53.4803C49.1466 53.7705 49.3896 54 49.6799 54H53.4598C53.5319 54 53.6032 53.9856 53.6697 53.9576C53.7361 53.9297 53.7962 53.8887 53.8465 53.8371C53.8968 53.7855 53.9363 53.7244 53.9627 53.6573C53.989 53.5902 54.0016 53.5186 53.9998 53.4465C53.8648 48.2492 51.7723 43.3758 48.0734 39.6837ZM33.75 33.7506C31.4415 33.7506 29.268 32.8529 27.6412 31.2194C26.8249 30.4095 26.18 29.4434 25.7451 28.3788C25.3102 27.3142 25.0942 26.173 25.11 25.0231C25.1303 22.8092 26.0145 20.6695 27.5602 19.0833C29.1802 17.4228 31.347 16.4981 33.6622 16.4711C35.9504 16.4509 38.1712 17.3418 39.8047 18.9415C41.4787 20.5817 42.3967 22.7754 42.3967 25.1108C42.3967 27.4193 41.4989 29.586 39.8654 31.2194C39.064 32.0246 38.1109 32.663 37.0612 33.0974C36.0115 33.5319 34.886 33.7539 33.75 33.7506ZM16.8413 26.8928C16.7806 26.3056 16.7468 25.7116 16.7468 25.1108C16.7468 24.0376 16.8481 22.9914 17.0371 21.9722C17.0843 21.7292 16.9561 21.4795 16.7333 21.3782C15.8153 20.9665 14.9716 20.3995 14.2426 19.684C13.3836 18.8511 12.7076 17.8483 12.2579 16.7396C11.8081 15.6309 11.5944 14.4406 11.6303 13.2447C11.6911 11.078 12.5618 9.01932 14.0806 7.46687C15.7478 5.75917 17.9888 4.82769 20.3715 4.85469C22.5248 4.87494 24.6038 5.70517 26.1765 7.17662C26.7098 7.67611 27.1688 8.22959 27.5535 8.82358C27.6885 9.03282 27.9517 9.12057 28.1812 9.03957C29.3692 8.62783 30.6247 8.33759 31.914 8.20259C32.292 8.16209 32.508 7.75711 32.3392 7.41962C30.1455 3.07949 25.6635 0.0825814 20.4795 0.00158376C12.9938 -0.113163 6.75688 6.02241 6.75688 13.4944C6.75688 17.7333 8.70761 21.5132 11.7653 23.9904C9.61886 24.9826 7.64112 26.3528 5.92663 28.0673C2.22766 31.7594 0.135168 36.6328 0.000168789 41.8369C-0.00163281 41.9089 0.0110033 41.9806 0.0373329 42.0476C0.0636625 42.1147 0.103153 42.1759 0.153477 42.2274C0.2038 42.279 0.26394 42.32 0.330351 42.348C0.396762 42.376 0.468102 42.3904 0.540165 42.3903H4.32689C4.61714 42.3903 4.86014 42.1608 4.86689 41.8706C4.99514 37.9557 6.58138 34.2906 9.36911 31.5097C11.3536 29.5252 13.7836 28.1483 16.4363 27.48C16.6996 27.4125 16.8751 27.1628 16.8413 26.8928Z" fill="white"/>
</svg>
