<svg width="64" height="64" viewBox="0 0 64 64" fill="none" xmlns="http://www.w3.org/2000/svg">
<path d="M18.5 15.8054C17.966 15.8054 17.444 15.9639 17 16.2607C16.556 16.5575 16.2099 16.9794 16.0056 17.473C15.8012 17.9666 15.7477 18.5098 15.8519 19.0338C15.9561 19.5578 16.2132 20.0391 16.5908 20.4169C16.9684 20.7947 17.4495 21.052 17.9733 21.1562C18.497 21.2605 19.0399 21.207 19.5333 21.0025C20.0266 20.798 20.4483 20.4518 20.745 20.0076C21.0417 19.5633 21.2 19.0411 21.2 18.5068C21.2 17.7903 20.9156 17.1032 20.4092 16.5966C19.9029 16.09 19.2161 15.8054 18.5 15.8054ZM58.2169 31.4192L32.621 5.86448C32.3693 5.59289 32.0644 5.37601 31.7253 5.2273C31.3862 5.07859 31.0202 5.00124 30.65 5.00005H14.45C14.0947 4.99799 13.7424 5.06613 13.4135 5.20056C13.0845 5.33499 12.7853 5.53307 12.533 5.78344L5.78304 12.5098C5.5328 12.7622 5.33483 13.0616 5.20046 13.3907C5.0661 13.7198 4.99799 14.0722 5.00005 14.4277V30.6358C5.00999 31.351 5.28966 32.0361 5.78304 32.5538L31.406 58.2166C31.9234 58.7102 32.6081 58.99 33.323 59C33.6783 59.002 34.0306 58.9339 34.3595 58.7994C34.6885 58.665 34.9877 58.4669 35.24 58.2166L58.2169 35.2281C58.4672 34.9757 58.6652 34.6763 58.7995 34.3472C58.9339 34.0181 59.002 33.6657 59 33.3102C58.9833 32.6043 58.7041 31.9301 58.2169 31.4192ZM33.5 54L9.5 30V15L15 9.5H30L53.5 33.3102L33.5 54Z" fill="white"/>
</svg>
